<mxfile host="app.diagrams.net" modified="2021-03-30T11:56:08.217Z" agent="5.0 (Windows NT 6.1; Win64; x64) AppleWebKit/537.36 (KHTML, like Gecko) Chrome/89.0.4389.82 Safari/537.36" etag="52IuM0h9LFq87ZDlN0K0" version="14.4.9" type="github">
  <diagram id="CARD7Sbv0hbfWBWJ-aAk" name="Page-1">
    <mxGraphModel dx="563" dy="299" grid="0" gridSize="10" guides="1" tooltips="1" connect="1" arrows="1" fold="1" page="1" pageScale="1" pageWidth="850" pageHeight="1100" math="0" shadow="0">
      <root>
        <mxCell id="0" />
        <mxCell id="1" parent="0" />
        <mxCell id="IS2gL23mLvxnRfCjPbjm-93" value="" style="verticalLabelPosition=bottom;verticalAlign=top;html=1;shape=mxgraph.basic.obtuse_triangle;dx=0.49;fillColor=#f5f5f5;rotation=-180;flipV=0;flipH=1;gradientColor=#b3b3b3;" vertex="1" parent="1">
          <mxGeometry x="450" y="640" width="330" height="20" as="geometry" />
        </mxCell>
        <mxCell id="IS2gL23mLvxnRfCjPbjm-1" value="Video head" style="rounded=0;whiteSpace=wrap;html=1;" vertex="1" parent="1">
          <mxGeometry x="370" y="440" width="70" height="20" as="geometry" />
        </mxCell>
        <mxCell id="IS2gL23mLvxnRfCjPbjm-39" style="edgeStyle=none;rounded=0;orthogonalLoop=1;jettySize=auto;html=1;exitX=0;exitY=1;exitDx=0;exitDy=0;entryX=0;entryY=0;entryDx=0;entryDy=0;endArrow=none;endFill=0;" edge="1" parent="1" source="IS2gL23mLvxnRfCjPbjm-2" target="IS2gL23mLvxnRfCjPbjm-7">
          <mxGeometry relative="1" as="geometry" />
        </mxCell>
        <mxCell id="IS2gL23mLvxnRfCjPbjm-2" value="GOP" style="rounded=0;whiteSpace=wrap;html=1;" vertex="1" parent="1">
          <mxGeometry x="440" y="440" width="80" height="20" as="geometry" />
        </mxCell>
        <mxCell id="IS2gL23mLvxnRfCjPbjm-34" style="edgeStyle=orthogonalEdgeStyle;rounded=0;orthogonalLoop=1;jettySize=auto;html=1;exitX=1;exitY=1;exitDx=0;exitDy=0;entryX=0;entryY=0;entryDx=0;entryDy=0;endArrow=none;endFill=0;" edge="1" parent="1" source="IS2gL23mLvxnRfCjPbjm-3" target="IS2gL23mLvxnRfCjPbjm-28">
          <mxGeometry relative="1" as="geometry" />
        </mxCell>
        <mxCell id="IS2gL23mLvxnRfCjPbjm-3" value="Slice head" style="rounded=0;whiteSpace=wrap;html=1;" vertex="1" parent="1">
          <mxGeometry x="490" y="500" width="60" height="20" as="geometry" />
        </mxCell>
        <mxCell id="IS2gL23mLvxnRfCjPbjm-4" value="MB" style="rounded=0;whiteSpace=wrap;html=1;" vertex="1" parent="1">
          <mxGeometry x="550" y="500" width="40" height="20" as="geometry" />
        </mxCell>
        <mxCell id="IS2gL23mLvxnRfCjPbjm-38" style="edgeStyle=none;rounded=0;orthogonalLoop=1;jettySize=auto;html=1;exitX=0;exitY=1;exitDx=0;exitDy=0;entryX=1;entryY=0;entryDx=0;entryDy=0;endArrow=openAsync;endFill=0;" edge="1" parent="1" source="IS2gL23mLvxnRfCjPbjm-5" target="IS2gL23mLvxnRfCjPbjm-15">
          <mxGeometry relative="1" as="geometry" />
        </mxCell>
        <mxCell id="IS2gL23mLvxnRfCjPbjm-5" value="GOP" style="rounded=0;whiteSpace=wrap;html=1;" vertex="1" parent="1">
          <mxGeometry x="520" y="440" width="80" height="20" as="geometry" />
        </mxCell>
        <mxCell id="IS2gL23mLvxnRfCjPbjm-7" value="I-frame" style="rounded=0;whiteSpace=wrap;html=1;" vertex="1" parent="1">
          <mxGeometry x="440" y="470" width="50" height="20" as="geometry" />
        </mxCell>
        <mxCell id="IS2gL23mLvxnRfCjPbjm-36" style="edgeStyle=none;rounded=0;orthogonalLoop=1;jettySize=auto;html=1;exitX=0;exitY=1;exitDx=0;exitDy=0;entryX=0;entryY=0;entryDx=0;entryDy=0;endArrow=none;endFill=0;" edge="1" parent="1" source="IS2gL23mLvxnRfCjPbjm-8" target="IS2gL23mLvxnRfCjPbjm-3">
          <mxGeometry relative="1" as="geometry" />
        </mxCell>
        <mxCell id="IS2gL23mLvxnRfCjPbjm-37" style="edgeStyle=none;rounded=0;orthogonalLoop=1;jettySize=auto;html=1;exitX=1;exitY=1;exitDx=0;exitDy=0;entryX=1;entryY=0;entryDx=0;entryDy=0;endArrow=openAsync;endFill=0;" edge="1" parent="1" source="IS2gL23mLvxnRfCjPbjm-8" target="IS2gL23mLvxnRfCjPbjm-24">
          <mxGeometry relative="1" as="geometry" />
        </mxCell>
        <mxCell id="IS2gL23mLvxnRfCjPbjm-8" value="P-frame" style="rounded=0;whiteSpace=wrap;html=1;" vertex="1" parent="1">
          <mxGeometry x="490" y="470" width="50" height="20" as="geometry" />
        </mxCell>
        <mxCell id="IS2gL23mLvxnRfCjPbjm-10" value="P-frame" style="rounded=0;whiteSpace=wrap;html=1;" vertex="1" parent="1">
          <mxGeometry x="540" y="470" width="50" height="20" as="geometry" />
        </mxCell>
        <mxCell id="IS2gL23mLvxnRfCjPbjm-11" value="B-frame" style="rounded=0;whiteSpace=wrap;html=1;" vertex="1" parent="1">
          <mxGeometry x="590" y="470" width="50" height="20" as="geometry" />
        </mxCell>
        <mxCell id="IS2gL23mLvxnRfCjPbjm-13" value="" style="group" vertex="1" connectable="0" parent="1">
          <mxGeometry x="600" y="436" width="180" height="24" as="geometry" />
        </mxCell>
        <mxCell id="IS2gL23mLvxnRfCjPbjm-6" value="" style="rounded=0;whiteSpace=wrap;html=1;" vertex="1" parent="IS2gL23mLvxnRfCjPbjm-13">
          <mxGeometry y="4" width="180" height="20" as="geometry" />
        </mxCell>
        <mxCell id="IS2gL23mLvxnRfCjPbjm-12" value="......" style="text;html=1;strokeColor=none;fillColor=none;align=center;verticalAlign=middle;whiteSpace=wrap;rounded=0;fontStyle=1" vertex="1" parent="IS2gL23mLvxnRfCjPbjm-13">
          <mxGeometry x="71.05263157894737" width="37.89473684210526" height="20" as="geometry" />
        </mxCell>
        <mxCell id="IS2gL23mLvxnRfCjPbjm-14" value="" style="group" vertex="1" connectable="0" parent="1">
          <mxGeometry x="640" y="466" width="140" height="24" as="geometry" />
        </mxCell>
        <mxCell id="IS2gL23mLvxnRfCjPbjm-15" value="" style="rounded=0;whiteSpace=wrap;html=1;" vertex="1" parent="IS2gL23mLvxnRfCjPbjm-14">
          <mxGeometry y="4" width="140" height="20" as="geometry" />
        </mxCell>
        <mxCell id="IS2gL23mLvxnRfCjPbjm-16" value="......" style="text;html=1;strokeColor=none;fillColor=none;align=center;verticalAlign=middle;whiteSpace=wrap;rounded=0;fontStyle=1" vertex="1" parent="IS2gL23mLvxnRfCjPbjm-14">
          <mxGeometry x="55.263157894736835" width="29.473684210526322" height="20" as="geometry" />
        </mxCell>
        <mxCell id="IS2gL23mLvxnRfCjPbjm-35" style="rounded=0;orthogonalLoop=1;jettySize=auto;html=1;exitX=0;exitY=1;exitDx=0;exitDy=0;entryX=1;entryY=0;entryDx=0;entryDy=0;endArrow=openAsync;endFill=0;" edge="1" parent="1" source="IS2gL23mLvxnRfCjPbjm-22" target="IS2gL23mLvxnRfCjPbjm-30">
          <mxGeometry relative="1" as="geometry" />
        </mxCell>
        <mxCell id="IS2gL23mLvxnRfCjPbjm-22" value="MB" style="rounded=0;whiteSpace=wrap;html=1;" vertex="1" parent="1">
          <mxGeometry x="590" y="500" width="40" height="20" as="geometry" />
        </mxCell>
        <mxCell id="IS2gL23mLvxnRfCjPbjm-28" value="MB head" style="rounded=0;whiteSpace=wrap;html=1;" vertex="1" parent="1">
          <mxGeometry x="550" y="530" width="60" height="20" as="geometry" />
        </mxCell>
        <mxCell id="IS2gL23mLvxnRfCjPbjm-59" style="edgeStyle=none;rounded=0;orthogonalLoop=1;jettySize=auto;html=1;exitX=0;exitY=1;exitDx=0;exitDy=0;entryX=0;entryY=0;entryDx=0;entryDy=0;endArrow=none;endFill=0;" edge="1" parent="1" source="IS2gL23mLvxnRfCjPbjm-29" target="IS2gL23mLvxnRfCjPbjm-54">
          <mxGeometry relative="1" as="geometry" />
        </mxCell>
        <mxCell id="IS2gL23mLvxnRfCjPbjm-29" value="Prediction data" style="rounded=0;whiteSpace=wrap;html=1;" vertex="1" parent="1">
          <mxGeometry x="610" y="530" width="90" height="20" as="geometry" />
        </mxCell>
        <mxCell id="IS2gL23mLvxnRfCjPbjm-58" style="edgeStyle=none;rounded=0;orthogonalLoop=1;jettySize=auto;html=1;exitX=0;exitY=1;exitDx=0;exitDy=0;entryX=1;entryY=0;entryDx=0;entryDy=0;endArrow=openAsync;endFill=0;" edge="1" parent="1" source="IS2gL23mLvxnRfCjPbjm-30" target="IS2gL23mLvxnRfCjPbjm-51">
          <mxGeometry relative="1" as="geometry" />
        </mxCell>
        <mxCell id="IS2gL23mLvxnRfCjPbjm-30" value="Residual data" style="rounded=0;whiteSpace=wrap;html=1;" vertex="1" parent="1">
          <mxGeometry x="700" y="530" width="80" height="20" as="geometry" />
        </mxCell>
        <mxCell id="IS2gL23mLvxnRfCjPbjm-31" value="MB" style="rounded=0;whiteSpace=wrap;html=1;" vertex="1" parent="1">
          <mxGeometry x="630" y="500" width="40" height="20" as="geometry" />
        </mxCell>
        <mxCell id="IS2gL23mLvxnRfCjPbjm-24" value="" style="rounded=0;whiteSpace=wrap;html=1;" vertex="1" parent="1">
          <mxGeometry x="670" y="500" width="110" height="20" as="geometry" />
        </mxCell>
        <mxCell id="IS2gL23mLvxnRfCjPbjm-25" value="......" style="text;html=1;strokeColor=none;fillColor=none;align=center;verticalAlign=middle;whiteSpace=wrap;rounded=0;fontStyle=1" vertex="1" parent="1">
          <mxGeometry x="718.6842105263158" y="496" width="12.63157894736842" height="20" as="geometry" />
        </mxCell>
        <mxCell id="IS2gL23mLvxnRfCjPbjm-41" value="0" style="rounded=0;whiteSpace=wrap;html=1;" vertex="1" parent="1">
          <mxGeometry x="640" y="560" width="10" height="20" as="geometry" />
        </mxCell>
        <mxCell id="IS2gL23mLvxnRfCjPbjm-42" value="" style="shape=manualInput;whiteSpace=wrap;html=1;rotation=90;size=237;fillColor=#f5f5f5;gradientColor=#b3b3b3;gradientDirection=east;" vertex="1" parent="1">
          <mxGeometry x="627.5" y="352.5" width="10" height="285" as="geometry" />
        </mxCell>
        <mxCell id="IS2gL23mLvxnRfCjPbjm-44" value="" style="shape=manualInput;whiteSpace=wrap;html=1;rotation=90;size=186;fillColor=#f5f5f5;gradientColor=#b3b3b3;gradientDirection=east;" vertex="1" parent="1">
          <mxGeometry x="660" y="410" width="10" height="230" as="geometry" />
        </mxCell>
        <mxCell id="IS2gL23mLvxnRfCjPbjm-45" value="0" style="rounded=0;whiteSpace=wrap;html=1;" vertex="1" parent="1">
          <mxGeometry x="650" y="560" width="10" height="20" as="geometry" />
        </mxCell>
        <mxCell id="IS2gL23mLvxnRfCjPbjm-46" value="0" style="rounded=0;whiteSpace=wrap;html=1;" vertex="1" parent="1">
          <mxGeometry x="660" y="560" width="10" height="20" as="geometry" />
        </mxCell>
        <mxCell id="IS2gL23mLvxnRfCjPbjm-47" value="1" style="rounded=0;whiteSpace=wrap;html=1;" vertex="1" parent="1">
          <mxGeometry x="670" y="560" width="10" height="20" as="geometry" />
        </mxCell>
        <mxCell id="IS2gL23mLvxnRfCjPbjm-86" style="edgeStyle=none;rounded=0;orthogonalLoop=1;jettySize=auto;html=1;exitX=0.5;exitY=1;exitDx=0;exitDy=0;endArrow=openThin;endFill=0;entryX=0.5;entryY=0;entryDx=0;entryDy=0;" edge="1" parent="1" source="IS2gL23mLvxnRfCjPbjm-48" target="IS2gL23mLvxnRfCjPbjm-68">
          <mxGeometry relative="1" as="geometry">
            <mxPoint x="685.0111731843576" y="610" as="targetPoint" />
          </mxGeometry>
        </mxCell>
        <mxCell id="IS2gL23mLvxnRfCjPbjm-48" value="1" style="rounded=0;whiteSpace=wrap;html=1;fontColor=#006EAF;" vertex="1" parent="1">
          <mxGeometry x="680" y="560" width="10" height="20" as="geometry" />
        </mxCell>
        <mxCell id="IS2gL23mLvxnRfCjPbjm-85" style="edgeStyle=none;rounded=0;orthogonalLoop=1;jettySize=auto;html=1;exitX=0.5;exitY=1;exitDx=0;exitDy=0;entryX=0.5;entryY=0;entryDx=0;entryDy=0;endArrow=openThin;endFill=0;" edge="1" parent="1" source="IS2gL23mLvxnRfCjPbjm-49" target="IS2gL23mLvxnRfCjPbjm-69">
          <mxGeometry relative="1" as="geometry" />
        </mxCell>
        <mxCell id="IS2gL23mLvxnRfCjPbjm-49" value="0" style="rounded=0;whiteSpace=wrap;html=1;fontColor=#006EAF;" vertex="1" parent="1">
          <mxGeometry x="690" y="560" width="10" height="20" as="geometry" />
        </mxCell>
        <mxCell id="IS2gL23mLvxnRfCjPbjm-87" style="edgeStyle=none;rounded=0;orthogonalLoop=1;jettySize=auto;html=1;exitX=0.5;exitY=1;exitDx=0;exitDy=0;endArrow=openThin;endFill=0;entryX=0.5;entryY=0;entryDx=0;entryDy=0;" edge="1" parent="1" source="IS2gL23mLvxnRfCjPbjm-50" target="IS2gL23mLvxnRfCjPbjm-70">
          <mxGeometry relative="1" as="geometry">
            <mxPoint x="705.0111731843576" y="610" as="targetPoint" />
          </mxGeometry>
        </mxCell>
        <mxCell id="IS2gL23mLvxnRfCjPbjm-50" value="1" style="rounded=0;whiteSpace=wrap;html=1;fontColor=#006EAF;" vertex="1" parent="1">
          <mxGeometry x="700" y="560" width="10" height="20" as="geometry" />
        </mxCell>
        <mxCell id="IS2gL23mLvxnRfCjPbjm-54" value="" style="rounded=0;whiteSpace=wrap;html=1;" vertex="1" parent="1">
          <mxGeometry x="610" y="560" width="30" height="20" as="geometry" />
        </mxCell>
        <mxCell id="IS2gL23mLvxnRfCjPbjm-55" value="......" style="text;html=1;strokeColor=none;fillColor=none;align=center;verticalAlign=middle;whiteSpace=wrap;rounded=0;fontStyle=1" vertex="1" parent="1">
          <mxGeometry x="618.6899999999999" y="559" width="12.63" height="14" as="geometry" />
        </mxCell>
        <mxCell id="IS2gL23mLvxnRfCjPbjm-56" value="" style="group" vertex="1" connectable="0" parent="1">
          <mxGeometry x="710" y="559" width="70" height="21" as="geometry" />
        </mxCell>
        <mxCell id="IS2gL23mLvxnRfCjPbjm-51" value="" style="rounded=0;whiteSpace=wrap;html=1;" vertex="1" parent="IS2gL23mLvxnRfCjPbjm-56">
          <mxGeometry y="1" width="70" height="20" as="geometry" />
        </mxCell>
        <mxCell id="IS2gL23mLvxnRfCjPbjm-52" value="......" style="text;html=1;strokeColor=none;fillColor=none;align=center;verticalAlign=middle;whiteSpace=wrap;rounded=0;fontStyle=1" vertex="1" parent="IS2gL23mLvxnRfCjPbjm-56">
          <mxGeometry x="20.27666666666653" width="29.470000000000002" height="14" as="geometry" />
        </mxCell>
        <mxCell id="IS2gL23mLvxnRfCjPbjm-60" value="" style="shape=manualInput;whiteSpace=wrap;html=1;rotation=90;size=260;fillColor=#f5f5f5;gradientColor=#b3b3b3;gradientDirection=east;" vertex="1" parent="1">
          <mxGeometry x="605" y="295" width="10" height="340" as="geometry" />
        </mxCell>
        <mxCell id="IS2gL23mLvxnRfCjPbjm-63" value="" style="shape=manualInput;whiteSpace=wrap;html=1;rotation=90;size=80;fillColor=#f5f5f5;gradientColor=#b3b3b3;gradientDirection=east;" vertex="1" parent="1">
          <mxGeometry x="690" y="470" width="10" height="170" as="geometry" />
        </mxCell>
        <mxCell id="IS2gL23mLvxnRfCjPbjm-64" value="0" style="rounded=0;whiteSpace=wrap;html=1;" vertex="1" parent="1">
          <mxGeometry x="640" y="620" width="10" height="20" as="geometry" />
        </mxCell>
        <mxCell id="IS2gL23mLvxnRfCjPbjm-65" value="0" style="rounded=0;whiteSpace=wrap;html=1;" vertex="1" parent="1">
          <mxGeometry x="650" y="620" width="10" height="20" as="geometry" />
        </mxCell>
        <mxCell id="IS2gL23mLvxnRfCjPbjm-66" value="0" style="rounded=0;whiteSpace=wrap;html=1;" vertex="1" parent="1">
          <mxGeometry x="660" y="620" width="10" height="20" as="geometry" />
        </mxCell>
        <mxCell id="IS2gL23mLvxnRfCjPbjm-67" value="1" style="rounded=0;whiteSpace=wrap;html=1;" vertex="1" parent="1">
          <mxGeometry x="670" y="620" width="10" height="20" as="geometry" />
        </mxCell>
        <mxCell id="IS2gL23mLvxnRfCjPbjm-68" value="0" style="rounded=0;whiteSpace=wrap;html=1;fontColor=#FF8000;" vertex="1" parent="1">
          <mxGeometry x="680" y="620" width="10" height="20" as="geometry" />
        </mxCell>
        <mxCell id="IS2gL23mLvxnRfCjPbjm-69" value="1" style="rounded=0;whiteSpace=wrap;html=1;fontColor=#FF8000;" vertex="1" parent="1">
          <mxGeometry x="690" y="620" width="10" height="20" as="geometry" />
        </mxCell>
        <mxCell id="IS2gL23mLvxnRfCjPbjm-70" value="0" style="rounded=0;whiteSpace=wrap;html=1;fontColor=#FF8000;" vertex="1" parent="1">
          <mxGeometry x="700" y="620" width="10" height="20" as="geometry" />
        </mxCell>
        <mxCell id="IS2gL23mLvxnRfCjPbjm-109" style="edgeStyle=none;rounded=0;orthogonalLoop=1;jettySize=auto;html=1;exitX=0;exitY=1;exitDx=0;exitDy=0;entryX=0.134;entryY=-0.007;entryDx=0;entryDy=0;entryPerimeter=0;endArrow=openThin;endFill=0;fontColor=#000000;" edge="1" parent="1" source="IS2gL23mLvxnRfCjPbjm-71" target="IS2gL23mLvxnRfCjPbjm-79">
          <mxGeometry relative="1" as="geometry" />
        </mxCell>
        <mxCell id="IS2gL23mLvxnRfCjPbjm-71" value="" style="rounded=0;whiteSpace=wrap;html=1;" vertex="1" parent="1">
          <mxGeometry x="610" y="620" width="30" height="20" as="geometry" />
        </mxCell>
        <mxCell id="IS2gL23mLvxnRfCjPbjm-72" value="......" style="text;html=1;strokeColor=none;fillColor=none;align=center;verticalAlign=middle;whiteSpace=wrap;rounded=0;fontStyle=1" vertex="1" parent="1">
          <mxGeometry x="618.6899999999999" y="619" width="12.63" height="14" as="geometry" />
        </mxCell>
        <mxCell id="IS2gL23mLvxnRfCjPbjm-78" value="Video head" style="rounded=0;whiteSpace=wrap;html=1;" vertex="1" parent="1">
          <mxGeometry x="370" y="660" width="70" height="20" as="geometry" />
        </mxCell>
        <mxCell id="IS2gL23mLvxnRfCjPbjm-79" value="GOP" style="rounded=0;whiteSpace=wrap;html=1;" vertex="1" parent="1">
          <mxGeometry x="440" y="660" width="80" height="20" as="geometry" />
        </mxCell>
        <mxCell id="IS2gL23mLvxnRfCjPbjm-76" value="" style="rounded=0;whiteSpace=wrap;html=1;fillColor=none;strokeColor=#FF0000;" vertex="1" parent="1">
          <mxGeometry x="639" y="559" width="72" height="22" as="geometry" />
        </mxCell>
        <mxCell id="IS2gL23mLvxnRfCjPbjm-88" value="MVD" style="text;html=1;strokeColor=none;fillColor=none;align=center;verticalAlign=middle;whiteSpace=wrap;rounded=0;fontColor=#FF0000;fontStyle=1" vertex="1" parent="1">
          <mxGeometry x="632" y="578" width="40" height="20" as="geometry" />
        </mxCell>
        <mxCell id="IS2gL23mLvxnRfCjPbjm-74" value="" style="rounded=0;whiteSpace=wrap;html=1;" vertex="1" parent="1">
          <mxGeometry x="710" y="620" width="70" height="20" as="geometry" />
        </mxCell>
        <mxCell id="IS2gL23mLvxnRfCjPbjm-75" value="......" style="text;html=1;strokeColor=none;fillColor=none;align=center;verticalAlign=middle;whiteSpace=wrap;rounded=0;fontStyle=1" vertex="1" parent="1">
          <mxGeometry x="730.2766666666665" y="619" width="29.470000000000002" height="14" as="geometry" />
        </mxCell>
        <mxCell id="IS2gL23mLvxnRfCjPbjm-77" value="" style="rounded=0;whiteSpace=wrap;html=1;fillColor=none;strokeColor=#FF0000;" vertex="1" parent="1">
          <mxGeometry x="639" y="619" width="72" height="22" as="geometry" />
        </mxCell>
        <mxCell id="IS2gL23mLvxnRfCjPbjm-90" value="Bitstream encryption" style="text;html=1;strokeColor=none;fillColor=none;align=center;verticalAlign=middle;whiteSpace=wrap;rounded=0;" vertex="1" parent="1">
          <mxGeometry x="715" y="589" width="60" height="20" as="geometry" />
        </mxCell>
        <mxCell id="IS2gL23mLvxnRfCjPbjm-94" value="" style="rounded=0;whiteSpace=wrap;html=1;fontColor=#000000;fillColor=#FF0000;strokeColor=none;" vertex="1" parent="1">
          <mxGeometry x="450" y="660.5" width="3" height="19" as="geometry" />
        </mxCell>
        <mxCell id="IS2gL23mLvxnRfCjPbjm-96" value="" style="group" vertex="1" connectable="0" parent="1">
          <mxGeometry x="520" y="656" width="260" height="24" as="geometry" />
        </mxCell>
        <mxCell id="IS2gL23mLvxnRfCjPbjm-82" value="" style="rounded=0;whiteSpace=wrap;html=1;" vertex="1" parent="IS2gL23mLvxnRfCjPbjm-96">
          <mxGeometry y="4" width="260" height="20" as="geometry" />
        </mxCell>
        <mxCell id="IS2gL23mLvxnRfCjPbjm-83" value="......" style="text;html=1;strokeColor=none;fillColor=none;align=center;verticalAlign=middle;whiteSpace=wrap;rounded=0;fontStyle=1" vertex="1" parent="IS2gL23mLvxnRfCjPbjm-96">
          <mxGeometry x="102.63157894736847" width="54.73684210526315" height="20" as="geometry" />
        </mxCell>
        <mxCell id="IS2gL23mLvxnRfCjPbjm-107" value="Original video bitstream" style="text;html=1;strokeColor=none;fillColor=none;align=center;verticalAlign=middle;whiteSpace=wrap;rounded=0;fontColor=#000000;" vertex="1" parent="1">
          <mxGeometry x="358" y="419" width="148" height="20" as="geometry" />
        </mxCell>
        <mxCell id="IS2gL23mLvxnRfCjPbjm-108" value="Encrypted video bitstream" style="text;html=1;strokeColor=none;fillColor=none;align=center;verticalAlign=middle;whiteSpace=wrap;rounded=0;fontColor=#000000;" vertex="1" parent="1">
          <mxGeometry x="358" y="678" width="160" height="20" as="geometry" />
        </mxCell>
      </root>
    </mxGraphModel>
  </diagram>
</mxfile>
